<svg width="990" height="202" viewBox="0 0 990 202" fill="none" xmlns="http://www.w3.org/2000/svg"><g clip-path="url(#clip0_4775_233)" fill-rule="evenodd" clip-rule="evenodd"><path d="M75.91 110.274l29.157 18.357-8.179-33.659 26.469-21.957-34.59-2.285-12.856-32.272L63.048 70.73l-34.584 2.285 26.467 21.957-8.18 33.659 29.16-18.357zm.002 91.446L0 138.018V29.945L35.692-.005h80.439l35.693 29.95v108.073L75.912 201.72z" fill="#F0401E"/><path d="M297.658 31.128h25.065v62.14l23.868-62.14h30.017v105.665h-25.066V76.91l-23.863 59.883h-30.021V31.128zm164.433 24.613v38.132c0 15.606-10.511 24.613-26.269 24.613h-20.111v18.307h-26.569V31.128h46.832c15.606 0 26.117 9.007 26.117 24.613zM432.367 94.02c1.952 0 3.153-1.197 3.153-3.147v-32.13c0-1.95-1.201-3.147-3.153-3.147h-16.656V94.02h16.656zm57.924-62.891v24.467h24.015v81.198h26.416V55.595h24.016V31.128h-74.447zm164.541 105.665V31.128H681.4v40.074h22.812V31.128h26.57v105.665h-26.57V95.669H681.4v41.124h-26.568zM778.884 95.67h-9.001v41.124h-26.568V31.128h26.568v40.074h9.156l16.208-40.074h28.215L802.9 82.611l20.562 54.182h-29.416l-15.162-41.124zm48.432 17.709V54.544c0-15.612 10.508-24.62 26.268-24.62H877c15.762 0 26.264 9.008 26.264 24.62v58.834c0 15.612-10.504 24.619-26.264 24.619h-23.416c-15.758 0-26.269-9.007-26.268-24.619zm29.722.152h16.51c1.95 0 3.148-1.203 3.148-3.153V57.544c0-1.95-1.198-3.152-3.148-3.152h-16.51c-1.955 0-3.155 1.203-3.155 3.152l.001 52.833c0 1.95 1.199 3.153 3.154 3.153zm58.76-82.402h47.43c15.759 0 26.264 9.007 26.264 24.613v9.607c0 6.453-2.401 10.956-7.95 14.409l-5.554 3.453 5.25 3c5.706 3.305 8.254 7.657 8.254 14.262v11.708c0 15.607-10.505 24.613-26.264 24.613h-47.43V31.128zm43.978 41.578c1.95 0 3.154-1.204 3.154-3.154v-11.11c0-1.949-1.204-3.146-3.154-3.146h-17.409v17.41h17.409zm0 39.92c1.95 0 3.154-1.198 3.154-3.147V97.166c0-1.95-1.204-3.147-3.154-3.147h-17.409v18.607h17.409zm-343.505 5.86h-23.329l-2.352 18.307h-27.767l14.561-105.665h54.295l14.557 105.665h-27.613c-.785-6.102-1.569-12.204-2.352-18.307zM596.116 94.02h16.912l-5.064-38.424h-6.865l-4.501 34.52h.025l-.507 3.904zM212.327 78.106v58.687h-25.065V31.128h31.817l17.111 53.731 17.116-53.731h31.818v105.665h-25.066V78.406l-14.862 44.278h-18.008l-14.861-44.578z" fill="#fff"/></g><defs><clipPath id="clip0_4775_233"><path fill="#fff" d="M0 0h989.493v201.72H0z"/></clipPath></defs></svg>